<?xml version="1.0" standalone="no"?>
<!DOCTYPE svg PUBLIC "-//W3C//DTD SVG 20010904//EN"
 "http://www.w3.org/TR/2001/REC-SVG-20010904/DTD/svg10.dtd">
<svg version="1.0" xmlns="http://www.w3.org/2000/svg"
 width="225.000000pt" height="225.000000pt" viewBox="0 0 225.000000 225.000000"
 preserveAspectRatio="xMidYMid meet">
<metadata>
Created by potrace 1.16, written by Peter Selinger 2001-2019
</metadata>
<g transform="translate(0.000000,225.000000) scale(0.100000,-0.100000)"
fill="#000000" stroke="none">
<path d="M1070 2151 c-33 -11 -809 -448 -834 -470 -10 -9 -27 -34 -37 -56 -17
-37 -19 -75 -19 -500 0 -425 2 -463 19 -500 10 -22 27 -47 37 -56 10 -10 201
-120 424 -245 404 -228 405 -228 465 -228 60 0 62 1 465 228 223 125 414 235
424 244 10 9 27 35 37 57 17 37 19 75 19 500 0 425 -2 463 -19 500 -10 22 -27
47 -37 57 -10 9 -200 118 -422 243 -420 236 -452 249 -522 226z m476 -302
c217 -121 403 -232 414 -246 19 -25 20 -40 20 -478 0 -438 -1 -453 -20 -478
-28 -35 -799 -467 -835 -467 -35 0 -807 432 -835 467 -19 25 -20 42 -20 479
l0 453 23 26 c33 38 795 464 831 465 20 0 156 -71 422 -221z"/>
<path d="M1000 1694 c-218 -47 -399 -229 -445 -449 -19 -88 -19 -152 0 -240
56 -267 300 -464 576 -465 75 0 196 32 272 72 70 37 225 184 210 199 -6 6 -66
43 -136 83 l-126 74 -27 -30 c-47 -49 -128 -82 -199 -82 -152 0 -268 118 -269
270 0 198 208 328 385 241 30 -14 67 -39 83 -55 l27 -30 126 74 c70 40 130 77
136 83 15 15 -140 162 -210 199 -125 66 -267 86 -403 56z m245 -89 c71 -19
144 -58 198 -106 l41 -35 -62 -38 -62 -37 -34 26 c-88 67 -223 84 -333 43 -80
-29 -172 -121 -201 -201 -30 -78 -30 -186 0 -264 29 -80 121 -172 201 -201
110 -41 245 -24 333 43 l34 26 62 -37 62 -38 -41 -35 c-310 -276 -813 -44
-813 374 0 318 309 559 615 480z"/>
<path d="M1580 1305 l0 -45 -45 0 -45 0 0 -45 0 -45 45 0 45 0 0 -45 0 -45
-45 0 -45 0 0 -45 0 -45 45 0 45 0 0 -45 0 -45 40 0 40 0 0 45 0 45 50 0 50 0
0 -45 0 -45 40 0 40 0 0 45 0 45 45 0 45 0 0 45 0 45 -45 0 -45 0 0 45 0 45
45 0 45 0 0 45 0 45 -45 0 -45 0 0 45 0 45 -40 0 -40 0 0 -45 0 -45 -50 0 -50
0 0 45 0 45 -40 0 -40 0 0 -45z"/>
</g>
</svg>
